/* XPM */
static char *ec81b5ed0ec14fa4f2578afb4a6dcea7tWinAxgiVXvN54UK[] = {
/* columns rows colors chars-per-pixel */
"50 50 169 2 ",
"   c #010101",
".  c #0D0303",
"X  c #020A02",
"o  c #00000F",
"O  c #0B0708",
"+  c #0A0A0C",
"@  c #100000",
"#  c #190504",
"$  c #001300",
"%  c #171306",
"&  c #070E14",
"*  c #160E10",
"=  c #0E1013",
"-  c #101215",
";  c #13161A",
":  c #15191E",
">  c #210000",
",  c #220A09",
"<  c #290D0D",
"1  c #251903",
"2  c #291F00",
"3  c #231008",
"4  c #20190C",
"5  c #2C180A",
"6  c #2A1D10",
"7  c #361A17",
"8  c #381D1F",
"9  c #092000",
"0  c #2C2700",
"q  c #342208",
"w  c #26241D",
"e  c #372C14",
"r  c #001621",
"t  c #1B1D23",
"y  c #001F30",
"u  c #1E222A",
"i  c #002631",
"p  c #00263D",
"a  c #002D39",
"s  c #142237",
"d  c #03343F",
"f  c #11303E",
"g  c #232026",
"h  c #22262F",
"j  c #2C2B29",
"k  c #36282F",
"l  c #343021",
"z  c #3C3A2F",
"x  c #232730",
"c  c #262C36",
"v  c #292F39",
"b  c #2D3139",
"n  c #35303B",
"m  c #46300C",
"M  c #50380F",
"N  c #473A14",
"B  c #483912",
"V  c #533A10",
"C  c #5A2726",
"Z  c #5F2D26",
"A  c #5B2F31",
"S  c #4F3B34",
"D  c #642E28",
"F  c #6E3536",
"G  c #67373B",
"H  c #753332",
"J  c #793636",
"K  c #7E4F00",
"L  c #003243",
"P  c #2F3542",
"I  c #303642",
"U  c #353D4D",
"Y  c #423E49",
"T  c #16465C",
"R  c #3A414D",
"E  c #3C4252",
"W  c #3F485B",
"Q  c #325164",
"!  c #3E637E",
"~  c #59404F",
"^  c #414A5E",
"/  c #784249",
"(  c #675456",
")  c #434D60",
"_  c #455066",
"`  c #4A556C",
"'  c #4D5972",
"]  c #515E79",
"[  c #5A637F",
"{  c #974442",
"}  c #974949",
"|  c #A04946",
" . c #A34D4D",
".. c #AE4E4C",
"X. c #A65051",
"o. c #A95152",
"O. c #B35454",
"+. c #B65758",
"@. c #BC5B5C",
"#. c #B56F53",
"$. c #97566A",
"%. c #A25C63",
"&. c #C55854",
"*. c #C45C5C",
"=. c #CC5E5D",
"-. c #D3605E",
";. c #DA7A50",
":. c #EE7757",
">. c #E47A56",
",. c #EF7D56",
"<. c #EE775D",
"1. c #ED7B5A",
"2. c #C76061",
"3. c #CE6161",
"4. c #D56361",
"5. c #DC6563",
"6. c #DC676B",
"7. c #E36965",
"8. c #EB6B67",
"9. c #E66A68",
"0. c #ED6D6B",
"q. c #F0676C",
"w. c #F16F6C",
"e. c #ED7363",
"r. c #EA7B61",
"t. c #EF706F",
"y. c #F4706E",
"u. c #FB9202",
"i. c #FC9709",
"p. c #FBA700",
"a. c #FAA40B",
"s. c #F6A41B",
"d. c #F6B413",
"f. c #F49C2C",
"g. c #E99C33",
"h. c #F29638",
"j. c #F3A231",
"k. c #E1804C",
"l. c #F18746",
"z. c #F18B43",
"x. c #F0834C",
"c. c #EF8050",
"v. c #3A6583",
"b. c #5D6B86",
"n. c #5F6E8C",
"m. c #577595",
"M. c #697384",
"N. c #647493",
"B. c #6B7693",
"V. c #6F7995",
"C. c #6B7B9B",
"Z. c #7384A4",
"A. c #7089A9",
"S. c #7B8DAD",
"D. c #8696B7",
"F. c #8698B8",
"G. c #8A9CBC",
"H. c #92A3C2",
"J. c #98A7C6",
"K. c #9CACC5",
"L. c #9DAECB",
"P. c #9FB1CD",
"I. c #A2B2CD",
"U. c #A5B5D1",
"Y. c #ABBCD6",
"T. c #AFC0D9",
"R. c #B4C4DC",
"E. c #B9C8DF",
"W. c #BAC9E0",
/* pixels */
"0.0.0.0.0.0.0.0.0.0.0.0.0.0.0.0.0.0.0.0.0.0.0.0.0.0.0.0.0.0.0.0.0.0.0.0.0.0.0.0.0.0.0.0.0.0.0.0.0.0.",
"0.0.0.0.0.0.0.0.0.0.0.0.0.0.0.0.0.0.0.0.0.0.0.0.0.0.0.0.0.0.0.0.0.0.0.0.0.0.0.0.0.0.0.0.0.0.0.0.0.0.",
"0.0.0.0.0.0.0.0.0.0.0.0.0.0.0.0.0.0.0.0.0.0.0.0.0.0.0.0.0.0.0.0.0.0.0.0.0.0.0.0.0.0.0.0.0.0.0.0.0.0.",
"0.0.0.0.0.0.0.0.0.0.0.0.0.0.0.0.0.0.0.0.0.0.0.0.0.0.0.0.0.0.0.0.0.0.0.0.0.0.0.0.0.0.0.0.0.0.0.0.0.0.",
"0.0.0.0.0.0.0.0.0.0.0.0.0.0.0.0.0.0.0.0.0.0.0.0.0.0.0.0.0.0.0.0.0.0.0.0.0.0.0.0.0.0.0.0.0.0.0.0.0.0.",
"0.0.0.0.0.0.0.0.0.0.0.0.0.0.0.0.0.0.0.0.0.0.0.0.0.0.0.0.0.0.0.0.0.0.0.0.0.0.0.0.0.0.0.0.0.0.0.0.0.0.",
"0.0.0.0.0.0.0.0.0.0.0.0.0.0.0.0.0.0.0.0.0.0.0.0.0.0.0.0.0.0.0.0.0.0.0.0.0.0.0.0.0.0.0.0.0.0.0.0.0.0.",
"0.0.0.0.0.0.0.0.0.0.0.0.0.0.0.0.0.0.0.0.0.0.0.0.0.0.0.0.0.0.0.0.0.0.0.0.0.0.0.0.0.0.0.0.0.0.0.0.0.0.",
"0.0.0.0.0.0.0.0.0.0.0.0.0.0.0.0.0.0.0.0.0.0.0.0.0.0.0.0.0.0.0.0.0.0.0.0.0.0.0.0.0.0.0.0.0.0.0.0.0.0.",
"0.0.0.0.0.0.0.0.0.0.0.0.0.0.0.0.0.0.0.0.0.0.0.0.0.0.0.0.0.0.0.0.0.0.0.0.0.0.0.0.0.0.0.0.0.0.0.0.0.0.",
"0.0.0.0.0.0.0.0.0.0.0.0.0.0.0.0.0.0.0.0.0.0.0.0.0.0.0.0.0.0.0.0.0.0.0.0.0.0.0.0.0.0.0.0.0.0.0.0.0.0.",
"0.0.0.0.0.0.0.0.0.0.0.0.0.0.0.0.0.0.0.0.0.0.0.0.0.0.0.0.0.0.0.0.0.0.0.0.0.0.0.0.0.0.0.0.0.0.0.0.0.0.",
"0.0.0.0.0.0.0.0.0.0.0.0.0.0.0.0.0.0.0.0.0.0.0.0.0.0.0.0.0.0.0.0.0.0.0.0.0.0.0.0.0.0.0.0.0.0.0.0.0.0.",
"0.0.0.0.0.0.0.0.0.0.0.0.0.0.0.0.0.0.0.0.0.0.0.0.0.0.0.0.0.0.0.0.0.0.0.0.0.0.0.0.0.0.0.0.0.0.0.0.0.0.",
"0.0.0.0.0.0.0.0.0.0.0.0.0.0.0.0.0.0.0.0.0.0.0.0.0.0.0.0.0.0.0.0.0.0.0.0.0.0.0.0.0.0.0.0.0.0.0.0.0.0.",
"0.0.0.0.0.0.0.0.0.0.0.0.0.0.0.0.0.0.0.0.0.0.0.0.0.0.0.0.0.0.0.0.0.0.0.0.0.0.0.0.0.0.0.0.0.0.0.0.0.0.",
"0.0.0.0.0.0.0.0.0.0.0.0.0.0.0.0.0.0.0.0.0.0.0.0.0.0.0.0.0.0.0.0.0.0.0.0.0.0.0.0.0.0.0.0.0.0.0.0.0.0.",
"0.0.0.0.0.0.0.0.0.0.0.0.0.0.0.0.0.0.0.0.0.0.0.0.0.0.0.0.0.0.0.0.0.0.0.0.0.0.0.0.0.0.0.0.0.0.0.0.0.0.",
"0.0.0.0.0.0.0.0.0.0.0.0.0.0.0.0.0.0.0.0.0.0.0.0.0.0.0.0.0.0.0.0.0.0.0.0.0.0.0.0.0.0.0.0.0.0.0.0.0.0.",
"0.0.0.0.0.0.0.0.0.0.0.0.0.0.0.0.0.0.0.0.0.0.0.0.0.0.0.0.0.0.0.0.0.0.0.0.0.0.0.0.0.0.0.0.0.0.0.0.0.0.",
"0.0.0.0.0.0.0.0.0.0.0.0.0.0.0.0.0.0.0.0.0.0.0.0.0.0.0.0.0.0.0.0.0.0.0.0.0.0.0.0.0.0.0.0.0.0.0.0.0.0.",
"0.0.0.0.0.0.0.0.0.0.0.0.0.0.0.0.0.0.0.0.0.0.0.0.0.0.0.0.0.0.0.0.0.0.0.0.0.0.0.0.0.0.0.0.0.0.0.0.0.0.",
"0.0.0.0.0.0.0.0.0.0.0.0.0.0.0.0.0.0.0.0.0.0.0.0.0.0.0.0.0.0.0.0.0.0.0.0.0.0.0.0.0.0.0.0.0.0.0.0.0.0.",
"0.0.0.0.0.0.0.0.0.0.0.0.0.0.0.0.0.0.0.0.0.0.0.0.0.0.0.0.0.0.0.0.0.0.0.e.e.e.0.0.0.0.0.0.0.0.0.0.0.0.",
"0.0.0.0.0.0.0.0.0.0.0.0.0.0.0.0.0.0.0.0.0.0.0.0.0.0.0.0.0.0.0.0.0.0.<.x.l.c.1.0.0.0.0.0.0.0.0.0.0.0.",
"0.0.0.0.0.0.0.0.0.0.0.0.0.0.0.0.0.0.0.0.0.0.0.0.0.0.0.w.w.w.0.0.0.e.x.f.s.f.l.e.0.0.0.0.0.0.0.0.0.0.",
"0.0.0.0.0.0.0.0.0.0.0.0.0.0.0.0.0.0.0.0.0.0.0.y.y.y.t.3.2.6.w.e.r.1.h.d.i.u.h.,.0.0.0.0.0.0.0.0.0.0.",
"0.0.0.0.0.0.0.0.0.0.0.0.0.0.0.0.0.0.0.0.w.y.8.5.=.4.%.L p ( #.;.>.k.g.d.p.a.h.,.0.0.0.0.0.0.0.0.0.0.",
"0.0.0.0.0.0.0.0.0.0.0.0.0.0.0.0.0.0.0.y.7.../ Y f a Q s S K d $.q.0.:.z.j.f.z.e.0.0.0.0.0.0.0.0.0.0.",
"0.0.0.0.0.0.0.0.0.0.0.0.0.0.0.0.0.0.y.&.~ v.m.N.] ` I.M.> 7 o Y 7.w.e.<.:.1.e.0.0.0.0.0.0.0.0.0.0.0.",
"0.0.0.0.0.0.0.0.0.0.0.0.0.0.0.0.0.y.&.T A.H.J.H.D.B.K.L._ w $ Z 0.0.0.0.0.0.0.0.0.0.0.0.0.0.0.0.0.0.",
"0.0.0.0.0.0.0.0.0.0.0.0.0.0.0.0.y.-.L S.U.Y.Y.U.L.D.N.b.R % 6 $ O.y.0.0.0.0.0.0.0.0.0.0.0.0.0.0.0.0.",
"0.0.0.0.0.0.0.0.0.0.0.0.0.0.0.0.0.F ! L.Y.R.R.R.I.H.Z.) b l B 0 1 5.w.0.0.0.0.0.0.0.0.0.0.0.0.0.0.0.",
"0.0.0.0.0.0.0.0.0.0.0.0.0.0.0.y.=.y V.I.R.E.W.R.U.H.Z.] R z N V $ | y.0.0.0.0.0.0.0.0.0.0.0.0.0.0.0.",
"0.0.0.0.0.0.0.0.0.0.0.0.0.0.0.y.} L B.L.Y.R.R.T.P.G.Z.` I j e M 9 D 8.0.0.0.0.0.0.0.0.0.0.0.0.0.0.0.",
"0.0.0.0.0.0.0.0.0.0.0.0.0.0.0.0.F L [ G.I.Y.Y.I.H.S.n.^ P j e m 0 5 5.w.0.0.0.0.0.0.0.0.0.0.0.0.0.0.",
"0.0.0.0.0.0.0.0.0.0.0.0.0.0.0.8.A d ` C.F.H.H.G.S.N.' U c t 4 q 2 X -.y.0.0.0.0.0.0.0.0.0.0.0.0.0.0.",
"0.0.0.0.0.0.0.0.0.0.0.0.0.0.0.8.A i E ` b.C.Z.Z.n.` E v t - % 5 % X -.y.0.0.0.0.0.0.0.0.0.0.0.0.0.0.",
"0.0.0.0.0.0.0.0.0.0.0.0.0.0.0.0.J r n U W _ ' ` ^ U c u ; + O 3   7 5.w.0.0.0.0.0.0.0.0.0.0.0.0.0.0.",
"0.0.0.0.0.0.0.0.0.0.0.0.0.0.0.y. .  k c b P P v c h t ; = O   ,   H 0.0.0.0.0.0.0.0.0.0.0.0.0.0.0.0.",
"0.0.0.0.0.0.0.0.0.0.0.0.0.0.0.w.4.  ; g u h x x u t ; = O     ,   O.y.0.0.0.0.0.0.0.0.0.0.0.0.0.0.0.",
"0.0.0.0.0.0.0.0.0.0.0.0.0.0.0.0.w.{   8 ; : : : ; = + O     <   C 8.0.0.0.0.0.0.0.0.0.0.0.0.0.0.0.0.",
"0.0.0.0.0.0.0.0.0.0.0.0.0.0.0.0.w.9.C   7 * + + O O       <     -.y.0.0.0.0.0.0.0.0.0.0.0.0.0.0.0.0.",
"0.0.0.0.0.0.0.0.0.0.0.0.0.0.0.0.0.w.5.C     O           .     *.y.0.0.0.0.0.0.0.0.0.0.0.0.0.0.0.0.0.",
"0.0.0.0.0.0.0.0.0.0.0.0.0.0.0.0.0.0.y.8.{ #   # # # # @   J 5.y.0.0.0.0.0.0.0.0.0.0.0.0.0.0.0.0.0.0.",
"0.0.0.0.0.0.0.0.0.0.0.0.0.0.0.0.0.0.7.4.@./ t         & G O.3.5.0.0.0.0.0.0.0.0.0.0.0.0.0.0.0.0.0.0.",
"0.0.0.0.0.0.0.0.0.0.0.0.0.0.0.0.0.0.8.5.3.*.+.o. . .X.O.*.3.5.9.0.0.0.0.0.0.0.0.0.0.0.0.0.0.0.0.0.0.",
"0.0.0.0.0.0.0.0.0.0.0.0.0.0.0.0.0.0.0.w.w.w.w.w.w.w.w.w.w.w.w.0.0.0.0.0.0.0.0.0.0.0.0.0.0.0.0.0.0.0.",
"0.0.0.0.0.0.0.0.0.0.0.0.0.0.0.0.0.0.0.0.0.0.0.0.0.0.0.0.0.0.0.0.0.0.0.0.0.0.0.0.0.0.0.0.0.0.0.0.0.0.",
"0.0.0.0.0.0.0.0.0.0.0.0.0.0.0.0.0.0.0.0.0.0.0.0.0.0.0.0.0.0.0.0.0.0.0.0.0.0.0.0.0.0.0.0.0.0.0.0.0.0."
};
