/* XPM */
static char *_fbf4ca98ae048dcb2ce2fdcae647906x1Iahcacm5V7fzsy[] = {
/* columns rows colors chars-per-pixel */
"50 50 256 2 ",
"   c #60003F",
".  c #210849",
"X  c #1A797F",
"o  c #736953",
"O  c #6F597A",
"+  c #7D6777",
"@  c #6A6958",
"#  c #A83209",
"$  c #950420",
"%  c #CF0C0E",
"&  c #CE380F",
"*  c #DC392A",
"=  c #CE3133",
"-  c #E63331",
";  c #DC231C",
":  c #8A550A",
">  c #A55512",
",  c #BA620A",
"<  c #9D5524",
"1  c #AD552F",
"2  c #966D2D",
"3  c #B97639",
"4  c #B06631",
"5  c #CF5307",
"6  c #D86F09",
"7  c #E56C14",
"8  c #D84837",
"9  c #CE5233",
"0  c #E64434",
"q  c #D36735",
"w  c #E6762B",
"e  c #B13750",
"r  c #991F44",
"t  c #CC2C4B",
"y  c #D43472",
"u  c #E73A5D",
"i  c #B1504F",
"p  c #90734F",
"a  c #AF7251",
"s  c #965272",
"d  c #B2516C",
"f  c #957176",
"g  c #BA687C",
"h  c #B3706D",
"j  c #945859",
"k  c #CA4A48",
"l  c #D54644",
"z  c #D75348",
"x  c #D75655",
"c  c #C85152",
"v  c #E54C45",
"b  c #E64E55",
"n  c #E95A56",
"m  c #F25E5A",
"M  c #E45C4A",
"N  c #D8645B",
"B  c #D1704F",
"V  c #E8655B",
"C  c #E77657",
"Z  c #F06C4E",
"A  c #CC5873",
"S  c #D34F6B",
"D  c #E95A65",
"F  c #E85879",
"G  c #EE4E71",
"H  c #D7676A",
"J  c #C77667",
"K  c #D87765",
"L  c #D66574",
"P  c #D87577",
"I  c #C66E70",
"U  c #E86967",
"Y  c #F66867",
"T  c #EC766A",
"R  c #F57868",
"E  c #E96675",
"W  c #F26A75",
"Q  c #E87678",
"!  c #F57877",
"~  c #748E6D",
"^  c #5D936C",
"/  c #BC8C38",
"(  c #B7A833",
")  c #CD9A3C",
"_  c #E78C35",
"`  c #CEB23C",
"'  c #E8AA3E",
"]  c #EBA301",
"[  c #CADD18",
"{  c #C9DA02",
"}  c #CCDD2C",
"|  c #CADD24",
" . c #CCDC35",
".. c #CDDC39",
"X. c #CAD63E",
"o. c #D0DB3A",
"O. c #CFCF34",
"+. c #CBE02B",
"@. c #CCE133",
"#. c #CEE13A",
"$. c #C7E23A",
"%. c #D2E238",
"&. c #948855",
"*. c #BD8545",
"=. c #B59355",
"-. c #B3A853",
";. c #91916D",
":. c #B18D70",
">. c #97B270",
",. c #BDA56C",
"<. c #9EA24D",
"1. c #C8874A",
"2. c #D9964A",
"3. c #C98C56",
"4. c #D49554",
"5. c #C9944C",
"6. c #E8864D",
"7. c #E78959",
"8. c #F88956",
"9. c #F6955A",
"0. c #E98E4A",
"q. c #D6A15A",
"w. c #CABA56",
"e. c #CCB349",
"r. c #ECAA57",
"t. c #C98765",
"y. c #D8876C",
"u. c #D89C67",
"i. c #DC8977",
"p. c #CE9571",
"a. c #EB876A",
"s. c #F58768",
"d. c #EB9764",
"f. c #F68876",
"g. c #F59877",
"h. c #EE9775",
"j. c #DAA568",
"k. c #D0B370",
"l. c #E9A56B",
"z. c #EBBA6B",
"x. c #E8A979",
"c. c #F1B070",
"v. c #B7CD62",
"b. c #BDCD50",
"n. c #CDDC42",
"m. c #CBD74A",
"M. c #D1D947",
"N. c #CBC554",
"B. c #CDDD53",
"V. c #D4D957",
"C. c #CEC654",
"Z. c #EFC651",
"A. c #CEE342",
"S. c #D0E34E",
"D. c #D6C866",
"F. c #D5DB67",
"G. c #DAD575",
"H. c #D5CA72",
"J. c #E9C77A",
"K. c #F3C57B",
"L. c #F1C86A",
"P. c #DBE673",
"I. c #396A96",
"U. c #6E5490",
"Y. c #516A96",
"T. c #63729F",
"R. c #8C7090",
"E. c #B56A88",
"W. c #BA7896",
"Q. c #B47091",
"!. c #8F7CA7",
"~. c #CE6A8D",
"^. c #D8698D",
"/. c #D87B89",
"(. c #CF7590",
"). c #E46585",
"_. c #E97785",
"`. c #F77D88",
"'. c #EF7090",
"]. c #EC74A4",
"[. c #E16091",
"{. c #1F8587",
"}. c #6B9586",
"|. c #7688AF",
" X c #67A195",
".X c #90948F",
"XX c #AD8E91",
"oX c #98A98F",
"OX c #B9A394",
"+X c #AFAD8D",
"@X c #908DAC",
"#X c #AE93AA",
"$X c #B1A5AF",
"%X c #8DA9BE",
"&X c #C88889",
"*X c #DC8487",
"=X c #D69A9A",
"-X c #D2908F",
";X c #E6868A",
":X c #F88687",
">X c #E9968B",
",X c #F6998A",
"<X c #F78B99",
"1X c #F89997",
"2X c #E79099",
"3X c #DAA79A",
"4X c #CCB090",
"5X c #EAA78A",
"6X c #F5A687",
"7X c #E5AB9A",
"8X c #F5A598",
"9X c #EBB994",
"0X c #F3B498",
"qX c #F0B387",
"wX c #CD93A5",
"eX c #EB84A5",
"rX c #EB9CA5",
"tX c #F595AB",
"yX c #D8A6A7",
"uX c #CAB7BF",
"iX c #D1AFB1",
"pX c #E9A7A5",
"aX c #F8A8A8",
"sX c #E7B2A9",
"dX c #F6B6A8",
"fX c #F9A9B5",
"gX c #EBB3B9",
"hX c #F6B9B7",
"jX c #EAA5B8",
"kX c #B1C8B7",
"lX c #9ACAA4",
"zX c #D3CF90",
"xX c #F7C887",
"cX c #F3CA96",
"vX c #F5DA96",
"bX c #EDD38A",
"nX c #DEE486",
"mX c #F0E395",
"MX c #D6C3BB",
"NX c #C9CAAC",
"BX c #F7DAA8",
"VX c #F4C3BA",
"CX c #EDC9AE",
"ZX c #FAE7AE",
"AX c #A9B1D0",
"SX c #D1B8C6",
"DX c #EAB9C7",
"FX c #F8B9C3",
"GX c #F695C0",
"HX c #BCCDDC",
"JX c #D1CACB",
"KX c #E9C8C7",
"LX c #F7C8C9",
"PX c #F4CAD4",
"IX c #F0D5D3",
"UX c #ECECEB",
/* pixels */
".................. ........................................... ....... .............................",
".......................... ............................... .........................................",
"................ ....... ..................... ..... ................... ...........................",
"...................... .o......... .....@.+.@.%.%.%.A.@.#. ....... ....... .........................",
"................................ .#.%.X.C.q.5.( <.-.( N.m.n.%.%. ..... .............................",
".......................... .} o.n.O.<.a M S F t r I.+ 1 i a -.N.m...#...............................",
"...................... .} Z.p.a ) 3 f i w K M E.O h T.U.$   .   i *.( X.@. .........................",
"................ ...} S.k.h U.e 4.^ ~.S J B w Y.$XKX@X$XiXOX.Xj g y y J ,.n.+.......................",
"..................#.O.CXT o Y.5 3 1 d /.iX6 XXU.i.cXIXLXU =XKXJX&Xk x t e &.M. ......... ..... .....",
"................#.b.i A i A A ~.=X8 e $XpX; L l = ] h.].*X% % |.U.q w 6 -XE.B C.@...................",
" .............+.e.h o q SX[.r.,XDXKX% yX3X6 C Z Z k.l.F PX3Xk y.J y k 5 I h % c w.#....... .........",
"...... . ...+.k.a.e.}.&.iXP 6 3XP Q 5 cXCX_ T Z C +XrXK 9.aXLXiX7X2XV 3 @ : I &X= w.@...............",
".......... .M.! Y Z.5.;.kX^ r yX2.9 i.q.H b n W P J L XXM :.OX~ OXtX:.~ =.w d #Xs c C.@.............",
"........ ...l.m H :.r.' :.}.E.6.p.XX~.&.Y./.LXLXsX:.P Q.D 3X:.:..XS N c 9 ' -.Q.d = h m. ...........",
"........ .V.R m ^.+ R..X: @ &.d./.PXPXoX3.s.,X! ! OX&X#X/.hXfXW.!.E E z R.O w.x.S z t <.#. .........",
"........$.r.).A W L.JXuX=., 3X=.:.l <X=XW Y Y f.dX=X-Xs.+X>XLX$X2X! E J $X{.h 2.T t 8 c m. .........",
"...... ...r.).d U l.FXIXKX5XSX$Xf d 6.L.l.r.7.l.cXxXxXvXzX-Xr.5XPX1X- a +XNXj.9 N i 1.F -.#.........",
"..........d.m m - P JXkXAXDXjXyX#XW.D d.r.z.z.J.xXK.vXvXBXAXOXL.0X'.a &.g 9XZXVX5.:.;.s f n.o.......",
"......} M.#XA Z J |.JXoX4 F ].R.l n C d.2.q.xXxXJ.bXbXvXvXZXJXkXdXrX4XH T.i.>XtX;XI p Y.f C.@.......",
"...... .m.:.b l.,.U.iX+X*.U E.W.8 q 3.j.q.j.H.V... . ...F.mXZXUXIXsX2XU Q.7 7 Q [.a + @X7.j.$. .....",
"......[ nXBXC q.,.R.w.u.a g |.n M 3 3.4.4.D...}  ..... .| [ P.ZXmXCXsXc.8.N ).,XsXXXA P h.h.n. .....",
"......[ bXfXFX4X}.uXz.Z._ W.W.U U q *.3.w.#. ...........o.n.{ nXBXZXLX,XL.0XAXd.;XjXF v ).i.M. .....",
".... .A.' ; -XKXNX>.6 5XdXv T V b B 3 5.m. ............. ...} V.BXvXKXwXJ 0XHX(.'.VXz.d h oXm. .....",
".... .M.z.8.XXX 2XOXe.,XFXm U T ;XB 3 e.#..................... .bXxX7XOX>XUXIX(.W._.] @XQ.4.n. .....",
".... .n.,XR h.%X|.G hX8XW T U 2X2XB 4 e.#...................} V.bXxX1XOXUXIXd T.E.f.0X#X~.2.$.o.....",
".... .n.g.1X1XY -Xl _.pX0 V x x l i a N. ...................| G.c.z.1X@XUXJX>.u.8 3.>XQ W a.n. .....",
"......$.L.,XIX<X; - z iX@XB i Y.d c 4 m.#................. ...J.L._ a.eX7XVXkX` _ D.1.R W R M. .....",
"......@.J.Y hXVXw B o ~ @X#X0.g T.s 8 5.n..... ......... ...D.z.K.7.* F g._ P MXd.e.h Y :X8Xo. .....",
".. .o.} D.:XR ! r.oXs B l L K 5 j s z t e.#. ... ... ...m.k.j.l.C +X~ $ s I ;XdX7.C T Y `.0Xn. .....",
"...... .B.,X! 8.6.XX!.E E M d I.~ e d z b e.A.o. ...m.w.u.4.2.C Z 6.+X XT.!.>XgXu ! 9.R W l.$.......",
"........$.qXLXIX6.A SXJXH n H g h i !.c v 4 / ` e.) *.1./ p.i.z VXa.l.9Xg Y.h PX8X7.T T Q D.+.......",
"........+.D.FXdX#XT.*X#X;XU - D b l 8 l z > < 4 1 4 2 2 , sXpXD pXpX7.y.e &XSXa.s._.G :.OXV.} ......",
"........ .M.6XY /.-Xf.K KXyXp H x x x l 9 1 > < < < a c 7 sX2Xu D P = ^.Q.<XtX[.'.OXy.g.x.n.o.......",
"..........[ bXaX! '.g.y.sXsXt.XXR.M x z = & I c # # F ].E =XtX_.W N N ).eXF pXgXh t.XXJ -.#.........",
".. .......} B.dX:X:XuX-XT +XU ;XH V V * i > R.R.: o 4 Q H ;._.x.T 7X;.&.u.).rX5X) b l. Xv.} ........",
"............[ G.aX5XAXgXk.t.(.;XV * 0 _.:.p & $X@X@XoX2.s ;.x D W LX=XK *XeX&XG f.! aXCXB.} ........",
"..............[ ZXLXjXLXLX4Xt.6XgX:X0 rXMX&.T 4X;XPX&Xq .X}.a a W.'.F R g.2.p.'.<XhXFXJX[ ..........",
"........ .....} B.BXfXLXaXVX4X9XmXcXf.W pXy.&Xh 1 &XKX7.6X@X$XMX#XwXpXK VXdX4XwX:XdXyXv. ...........",
"................|  .x.>X5XFXVXaXdXxXr.`._.#XoXu.=.-.qXU ).DXJX;X0 aX8X:.Q PXkX! `.f.D.} ............",
".. ............... . .w.5X1X<X9.8.<X`.! wX@X!./.g.9.C K W `.U n V aX6X4X:X<XOX>X9XF.} ...... .......",
"...................... .G.c.aXtX8XqX6X:X#XH wXwX<X9.d.7.m Y :XR Y aXfX4Xs.8.4XG. .| ................",
"..........................P.CXGXfX<X1Xh.oXt.<X,X`.,X9.:X,Xs.R ! ! Y Y f.1XcXV.|  ..... .............",
"..........................| G.zXNXaX,X6XlX4X:XxX,X1Xx.-XaX6X:X:X`.1XaXCXnXM. .......................",
"............................[ | ..B.G.k.4XMXLXbXf.1XsX3X:X,X6XqXqXmXnXS.[  .........................",
".................. ...............} [ +.n.F.mXbXqX8X8Xf.).NXA...n.| { } n........... ...............",
".................... ... .........n..... .[ {  .M.M.G.zXH.B.} .. ...n.n.............................",
"............................................n... . .| } +.} ........................ ...............",
"........................................o...........o......................................... .....",
"....................................................................................................",
"...................................................................................................."
};
