/* XPM */
static char *_f4925443d944db0a94f236ff61e34e9il1Woav3zwruyb6T[] = {
/* columns rows colors chars-per-pixel */
"50 50 248 2 ",
"   c #000029",
".  c #310831",
"X  c #3D2122",
"o  c #4E1A17",
"O  c #4A321E",
"+  c #652C1C",
"@  c #4C0D2D",
"#  c #4F2D28",
"$  c #5C252A",
"%  c #5B322C",
"&  c #4A3833",
"*  c #593933",
"=  c #672929",
"-  c #6C3032",
";  c #663B36",
":  c #6C3932",
">  c #743C34",
",  c #7A3937",
"<  c #4D4239",
"1  c #56453B",
"2  c #68493C",
"3  c #7B453A",
"4  c #756D39",
"5  c #571546",
"6  c #452843",
"7  c #553C4E",
"8  c #6A2B46",
"9  c #6B3447",
"0  c #7B3C4E",
"q  c #5B4A42",
"w  c #594946",
"e  c #5D5242",
"r  c #5F4357",
"t  c #674A46",
"y  c #774947",
"u  c #68554A",
"i  c #76564B",
"p  c #66485C",
"a  c #6C5853",
"s  c #725C53",
"d  c #7B5958",
"f  c #7C714C",
"g  c #756255",
"h  c #7B645A",
"j  c #7F5E62",
"k  c #7D6964",
"l  c #8A3228",
"z  c #933A2D",
"x  c #873D34",
"c  c #933D32",
"v  c #B63E29",
"b  c #84443C",
"n  c #8B443A",
"m  c #854A3D",
"M  c #96473D",
"N  c #A7483A",
"B  c #B24837",
"V  c #84732E",
"C  c #862950",
"Z  c #854C44",
"A  c #8B4C43",
"S  c #8B4847",
"D  c #934C43",
"F  c #984945",
"G  c #84524C",
"H  c #8A574A",
"J  c #8C544B",
"K  c #845A4C",
"L  c #94544B",
"P  c #985549",
"I  c #9B554B",
"U  c #945C4D",
"Y  c #894C54",
"T  c #994E58",
"R  c #8A5953",
"E  c #935C51",
"W  c #9B5C53",
"Q  c #9B5C5D",
"!  c #A64E49",
"~  c #AB4C4F",
"^  c #A95648",
"/  c #A3594D",
"(  c #B65749",
")  c #A45C51",
"_  c #A65957",
"`  c #B75A56",
"'  c #8E6F51",
"]  c #896659",
"[  c #9C6355",
"{  c #9A6759",
"}  c #A36356",
"|  c #AB6255",
" . c #A2655A",
".. c #AB645B",
"X. c #A26B5B",
"o. c #AB6A5C",
"O. c #B76459",
"+. c #B46B5C",
"@. c #A3725C",
"#. c #AB735A",
"$. c #B5745F",
"%. c #965268",
"&. c #AA4F67",
"*. c #8A6C64",
"=. c #9A6862",
"-. c #877262",
";. c #967668",
":. c #9C7E6D",
">. c #967976",
",. c #A36B63",
"<. c #A96867",
"1. c #B56A66",
"2. c #BC6B64",
"3. c #A57464",
"4. c #AC7463",
"5. c #AD7B65",
"6. c #A47B6A",
"7. c #AB7C6B",
"8. c #B37B66",
"9. c #B87869",
"0. c #A37F7B",
"q. c #BB7877",
"w. c #C6594A",
"e. c #D45B4C",
"r. c #CE5F55",
"t. c #C86957",
"y. c #CB6C58",
"u. c #D4685A",
"i. c #C96D68",
"p. c #D06C6E",
"a. c #C87769",
"s. c #D87767",
"d. c #C97974",
"f. c #C47B7A",
"g. c #E47968",
"h. c #E17871",
"j. c #939834",
"k. c #B0912F",
"l. c #9FA032",
"z. c #A5AB37",
"x. c #ACB532",
"c. c #ADB73A",
"v. c #BAC43B",
"b. c #CCE512",
"n. c #CDDE24",
"m. c #CDDE2B",
"M. c #C2CC3C",
"N. c #CEDE35",
"B. c #C7D53A",
"V. c #CDDC39",
"C. c #CFE12D",
"Z. c #CFE133",
"A. c #CEE038",
"S. c #D1E235",
"D. c #D2E239",
"F. c #998B49",
"G. c #979844",
"H. c #8D8B56",
"J. c #A8934C",
"K. c #A68957",
"L. c #A4A447",
"P. c #B2B047",
"I. c #B9BC45",
"U. c #A3A454",
"Y. c #B8A959",
"T. c #B5B85C",
"R. c #9A876E",
"E. c #9A8274",
"W. c #AB816B",
"Q. c #B8856C",
"!. c #B29663",
"~. c #AC8573",
"^. c #A98876",
"/. c #B68978",
"(. c #BB8C79",
"). c #BD937A",
"_. c #B3AD6E",
"`. c #B9B967",
"'. c #C0A45F",
"]. c #C1826C",
"[. c #DB806C",
"{. c #C68776",
"}. c #C58C7B",
"|. c #CC8D7D",
" X c #D38977",
".X c #C5967C",
"XX c #CC937C",
"oX c #E7836D",
"OX c #EA8977",
"+X c #F18F78",
"@X c #E7937B",
"#X c #C5B873",
"$X c #E0A87B",
"%X c #BDC44E",
"&X c #C4CA4A",
"*X c #C8D443",
"=X c #C9D443",
"-X c #C6D153",
";X c #CAD053",
":X c #C2C66F",
">X c #BF5181",
",X c #C87B89",
"<X c #9F8580",
"1X c #A88B83",
"2X c #B99887",
"3X c #B69889",
"4X c #BAAA8C",
"5X c #B8A995",
"6X c #CD8986",
"7X c #D88B88",
"8X c #C69987",
"9X c #D79985",
"0X c #DB9B83",
"qX c #C39F92",
"wX c #D79B97",
"eX c #CDA48D",
"rX c #DEA38A",
"tX c #D8A488",
"yX c #CCB38F",
"uX c #D9A695",
"iX c #DEAE95",
"pX c #E1A48D",
"aX c #EFA28C",
"sX c #E2AB8E",
"dX c #E2A593",
"fX c #E5AC93",
"gX c #E5AC99",
"hX c #EAAC98",
"jX c #FBAB93",
"kX c #E5B194",
"lX c #E9B293",
"zX c #E4B49C",
"xX c #E9B49B",
"cX c #EAB89C",
"vX c #EBBCA3",
"bX c #EBB8A4",
"nX c #F3BAA6",
"mX c #EDC5A9",
"MX c #EEC5AB",
"NX c #F1C5AD",
"BX c #F1C7AC",
"VX c #EFCDB1",
"CX c #F3C5B4",
"ZX c #F1CBB1",
"AX c #F6CAB7",
"SX c #F0D1B5",
"DX c #F5D4BA",
"FX c #FDD8C6",
/* pixels */
"V.V.V.V.V.V.V.V.V.V.V.V.V.V.V.V.V.V.V.V.N.C.C.Z.m.m.N.V.N.N.V.V.V.V.V.V.V.V.V.V.V.V.V.V.V.V.V.V.V.V.",
"V.V.V.V.V.V.V.V.V.V.V.V.V.V.V.V.V.V.N.S.*X%XT._._.`.-XN.*XB.m.N.N.N.V.V.V.V.V.V.V.V.V.V.V.V.V.V.V.V.",
"V.V.V.V.V.V.V.V.V.V.V.V.V.V.V.V.N.S.*XU.R.<X*.j >.1X5X4X5X5X`.&X*XV.m.m.V.V.V.V.V.V.V.V.V.V.V.V.V.V.",
"V.V.V.V.V.V.V.V.V.V.V.V.V.V.V.S.%XL.-.p a h g q u :.2X1XE.;.0./.4XyX#X-XN.V.V.V.V.V.V.V.V.V.V.V.V.V.",
"V.V.V.V.V.V.V.V.V.V.V.V.V.A.N.U.k r w e a s s s s ;.^.:.] ;.~.~.~.(.qX4X`.m.V.V.V.V.V.V.V.V.V.V.V.V.",
"V.V.V.V.V.V.V.V.V.V.V.V.V.M.H.7 w u u < w a k *.*.;./.2X;.;.E.^./.^.^.^.>.T.D.V.V.V.V.V.V.V.V.V.V.V.",
"V.V.V.V.V.V.V.V.V.V.V.V.V.f 6 1 < e s h u w s h ] :.(.8X] u i -.;.:.^.:.;.1X`.n.V.V.V.V.V.V.V.V.V.V.",
"V.V.V.V.V.V.V.V.V.V.V.D.c.6 1 q s *.6.~./.~.6.7.W.(.uXeX6.i q < & & s h >.E.>.:Xm.V.V.V.V.V.V.V.V.V.",
"V.V.V.V.V.V.V.V.V.V.V.V.' 6 u s ;./.8XuXiXzXzXzXzXbXMXvXuX(.=.K u 1 1 & s E.;.>.`.m.V.V.V.V.V.V.V.V.",
"V.V.V.V.V.V.V.V.V.V.N.*Xu q s ] 6.8XiXzXcXvXvXvXvXMXNXNXvXbXzXiXeX).;.t q h -.-.>.:Xn.V.V.V.V.V.V.V.",
"V.V.V.V.V.V.V.V.V.V.D.P.7 u i { (.tXiXkXxXcXvXvXvXvXMXZXZXMXNXMXMXvXiX(.] 2 >.E.*.4X*XN.V.V.V.V.V.V.",
"V.V.V.V.V.V.V.V.V.V.S.G.6 1 d W.8XtXrXfXkXxXcXcXcXvXMXZXSXSXSXVXMXMXzXiX8X6.*.;.-.*.%XS.V.V.V.V.V.V.",
"V.V.V.V.V.V.V.V.V.N.*Xf X t 6./.(.XX9XrXsXfXfXkXxXcXMXZXZXSXDXDXSXMXcXkXiX.X~.;.:.>._.N.V.V.V.V.V.V.",
"V.V.V.V.V.V.V.V.V.S.&Xw & ] W.Q./.}.XX9XrXpXsXdXfXxXvXMXNXVXSXSXSXVXvXkXiXtX(.~.qX1X1X-XN.V.V.V.V.V.",
"V.V.V.V.V.V.V.V.V.D.c.. t ;.6.W.Q.(.XX9X0X0XrXpXdXfXfXcXvXMXMXMXMXMXvXkXsXrX.X5.eX2Xd T.S.V.V.V.V.V.",
"V.V.V.V.V.V.V.V.V.D.G.  1 ;.7.Q.}.9X9X9XrXrXrXrXsXfXfXfXfXfXcXcXcXcXcXkXsXsXtXQ.).yX>.U.S.V.V.V.V.V.",
"V.V.V.V.V.V.V.V.V.D.j.. =.1.1.1.9.6XgXdXrXdXpXsXsXfXfXfXxXxXcXcXcXkXkXsXsXsXtX}.).eX3XR.B.V.V.V.V.V.",
"V.V.V.V.V.V.V.V.V.N.F.%. .W 2.2.9.d.q.uXgXrXpXpXfXfXfXxXvXMXMXNXMXcXlXsXsXsXtX}.Q..X:.^.&XN.V.V.V.V.",
"V.V.V.V.V.V.V.V.N.*X<., I 2.2.+.+.a.2.Q wXdX0X0XpXdXdXfXbXCXDXAXvXbXvXvXxXsXrX{.@.~.;.-.-XN.V.V.V.V.",
"V.V.V.V.V.V.V.V.N.'.5 3 ..| L m 3 > Z b S 6X X X0XrXpXpXhXbX8Xq.6X}.f.6XuXvXfXQ.] K ;.-.*XN.V.V.V.V.",
"V.V.V.V.V.V.N.b.&XT O J ) I L I / I A b > _ 2.O. XrX0X0X X1._ 0XjXjXaXaX Xq.gXQ.K i =.^.*XN.V.V.V.V.",
"V.V.V.V.V.N.*X#XQ., O L ) I I I A A A A m A q.O.d.hXdXd._ D +.+.+.a.@XjXjXs.2.{.K 2 ] 6.B.N.V.V.V.V.",
"V.V.V.V.V.C.Y.>X1., O I / I A : % % * : 3 > 1.i.` <./.d.A A 3 3 b M ^ t.@XaXoX<.] * i ;.B.N.V.V.V.V.",
"V.V.V.V.V.S.I.[ _ , X I / F b > G * * ; : + _ 2.1.<.T 1.b b A D / O.O.O.( OX+X1.Y t y ' V.V.V.N.V.V.",
"V.V.V.V.V.V.V.B.Q.%.O / ( ! M , > ; ; > > - _ _ i.9X6XT , , : : > m ) y.^ t.@X[., O.dX#Xm.V.V.V.V.V.",
"V.V.V.V.V.V.V.S.&X6XQ ^ ` ! M c , , , x x x F F 9.9X_ S S = : ; & & # n ^ N s.oX! ! p.$XN.V.V.V.V.V.",
"V.V.V.V.V.V.V.V.m.'.p.^ ( ( N c c c c c N ^ F F gXFXwX~ a.F b Z * 2 Z o x N t.oX_ q.&.k.D.V.V.V.V.V.",
"V.V.V.V.V.V.V.V.A.M.f.i.B B ( ! N N ( ( w.` F d.bXFXCX` s.u.c x D ) ) M l N t.s._ Y C v.D.V.V.V.V.V.",
"V.V.V.V.V.V.V.V.V.Z.P.,XwXO.v w.w.e.e.r.t.F } dXnXFXCXd.` u.w.N l l z w.y.t.u.s.S Y 7X;Xm.V.V.V.V.V.",
"V.V.V.V.V.V.V.V.V.V.N.K.f.wXi.u.u.e.u.s.i.x o.hXCXAXnXwXp.u.e.e.t.t.w.u.oXg.g.i.R Y  X*XN.V.V.V.V.V.",
"V.V.V.V.V.V.V.V.V.V.A.Y.Q o.q.f.f.i.O.` D A 9.dXCXCXnXhXd.7Xh.e.g.OXOXOXoXOXs.<.~.- ' V.V.V.V.V.V.V.",
"V.V.V.V.V.V.V.V.V.V.N.Y.<.$...| / F F D b 9.9.4.{.9XpXhXi.t.7XOXh.@XOXoX+XOX9.|.4.0 J.N.V.V.V.V.V.V.",
"V.V.V.V.V.V.V.V.V.V.Z.Y.<.4.4.o.} W I A J { J G y Z I 0X|.F i.d.6XwX7Xd.f.4.|.{.[ Y J.N.V.V.V.V.V.V.",
"V.V.V.V.V.V.V.V.V.V.S.Y.<.4.3.X.[ W U W W 3 % 3 y ; X A 9.b ! O.i.s.a. Xd.+.+...o.<.Y.Z.V.V.V.V.V.V.",
"V.V.V.V.V.V.V.V.V.V.N.K.<.3.@.X.{ [  .4.,.E G G y y ; o I } D ) O.y.y.a.2./ 1.1...9.*XN.V.V.V.V.V.V.",
"V.V.V.V.V.V.V.V.V.D.x.y 7.3.X.{ [ X.4.8.4.X.[ R G R A 8.|.+.) ) ..+.+.+.} J ..4.&.J.A.V.V.V.V.V.V.V.",
"V.V.V.V.V.V.V.V.V.V.V - 6.@.X.X.[  .X.4.4.4. .W J [ {.fXgX|.o.} } o...} E Z J _ #.B.V.V.V.V.V.V.V.V.",
"V.V.V.V.V.V.V.V.V.V.V @ 6.@.X.{ [ U Z J E J Z L | d.hXnXhXrX{.o. . . .[ E Z U T L.S.V.V.V.V.V.V.V.V.",
"V.V.V.V.V.V.V.V.V.D.z.l.Y.,.@.{ [ J y > $ $ $ $ - = = ,.9XXX}.8. .[ [ E J G K 0 l.D.V.V.V.V.V.V.V.V.",
"V.V.V.V.V.V.V.V.V.V.V.S.&X3.@.{ [ [ X.X.[ L S S S _ =.= $ 3 U 4.X.[ E H G K K @ 4 V.V.V.V.V.V.V.V.V.",
"V.V.V.V.V.V.V.V.V.V.V.V.N.Y.,.@.{ X.X.X. .} L F I O.i.d.d.9.H U X.[ E K K G y t L.N.V.V.V.V.V.V.V.V.",
"V.V.V.V.V.V.V.V.V.V.V.V.N.V.!.,.@.X.X.X.[ U J A m m D +. X0X|. .[ [ E K 0 F.j.8 B.S.V.V.V.V.V.V.V.V.",
"V.V.V.V.V.V.V.V.V.V.V.V.V.N.*XW.X.@.3.3.4.o.W U L m m I $.9.9.o.U U K y i *Xx.2 V.V.V.V.V.V.V.V.V.V.",
"V.V.V.V.V.V.V.V.V.V.V.V.V.V.S.%X=.3.5.5.9.{.9XrXdXuX9X{.].9.$.o.[ U y y v.S.M.v.V.V.V.V.V.V.V.V.V.V.",
"V.V.V.V.V.V.V.V.V.V.V.V.V.V.V.N.I.=.,.5.9.|.0XpXfXxXxXfXrXXX].8.@.G y c.S.V.V.D.V.V.V.V.V.V.V.V.V.V.",
"V.V.V.V.V.V.V.V.V.V.V.V.V.V.V.V.A.&XK.{ @.8.9.].|.0XrXrX0XXX}.8.Y f c.D.V.V.V.V.V.V.V.V.V.V.V.V.V.V.",
"V.V.V.V.V.V.V.V.V.V.V.V.V.V.V.V.V.S.B.K.Y R E { X.4.Q.Q.Q.5.{ y G.B.D.V.V.V.V.V.V.V.V.V.V.V.V.V.V.V.",
"V.V.V.V.V.V.V.V.V.V.V.V.V.V.V.V.V.V.N.N.%XF.y 8 8 8 9 9 9 * 4 x.S.V.V.V.V.V.V.V.V.V.V.V.V.V.V.V.V.V.",
"V.V.V.V.V.V.V.V.V.V.V.V.V.V.V.V.V.V.V.V.S.V.v.z.l.l.z.z.z.x.V.D.V.V.V.V.V.V.V.V.V.V.V.V.V.V.V.V.V.V.",
"V.V.V.V.V.V.V.V.V.V.V.V.V.V.V.V.V.V.V.V.V.V.D.D.D.D.D.D.D.D.V.V.V.V.V.V.V.V.V.V.V.V.V.V.V.V.V.V.V.V."
};
