/* XPM */
static char *_a3d1d01aca14fbbb50b076929713b82[] = {
/* columns rows colors chars-per-pixel */
"50 50 203 2 ",
"   c #390076",
".  c #690076",
"X  c #6C3778",
"o  c #2A467A",
"O  c #394E7F",
"+  c #75586D",
"@  c #840069",
"#  c #96006C",
"$  c #9A0076",
"%  c #990079",
"&  c #A5006E",
"*  c #A50076",
"=  c #BC007C",
"-  c #C7007A",
";  c #D8007C",
":  c #DD2A77",
">  c #CE317A",
",  c #ED3777",
"<  c #F33A7F",
"1  c #83427E",
"2  c #A85A62",
"3  c #DB4A6E",
"4  c #DC526E",
"5  c #DC507D",
"6  c #E6566D",
"7  c #E55D6D",
"8  c #E74C74",
"9  c #E45471",
"0  c #EC5A78",
"q  c #F35A78",
"w  c #DB637E",
"e  c #E7686D",
"r  c #E67264",
"t  c #EA736D",
"y  c #E86578",
"u  c #DEB919",
"i  c #E1BE15",
"p  c #DEAD29",
"a  c #DDB423",
"s  c #DDAA35",
"d  c #D7BB3A",
"f  c #E4B72B",
"g  c #E5BB2A",
"h  c #E5AA3A",
"j  c #E1B630",
"k  c #E2BB31",
"l  c #D2DE05",
"z  c #D2DC1E",
"x  c #E2C601",
"c  c #ECD300",
"v  c #F2DE00",
"b  c #E8C71C",
"n  c #EAD715",
"m  c #EBD31A",
"M  c #D2E10D",
"N  c #D2E21D",
"B  c #EEE11D",
"V  c #F0E113",
"C  c #D6C829",
"Z  c #CEDD23",
"A  c #CDDD2C",
"S  c #D1DE27",
"D  c #D0DE2D",
"F  c #C6CA3E",
"G  c #CECD3B",
"H  c #D7C635",
"J  c #DDC535",
"K  c #DCCB35",
"L  c #D1C33C",
"P  c #D2CA39",
"I  c #D9C838",
"U  c #CDDC35",
"Y  c #CED33A",
"T  c #CDDC39",
"R  c #D6D535",
"E  c #D3D33A",
"W  c #D0DD3B",
"Q  c #E6C524",
"!  c #E7C924",
"~  c #EACD26",
"^  c #E5C32D",
"/  c #E8C62A",
"(  c #EBCB2A",
")  c #EAD124",
"_  c #EEDB23",
"`  c #E7D42D",
"'  c #ECD52B",
"]  c #F0D129",
"[  c #F1DC2D",
"{  c #E3C732",
"}  c #E4CD32",
"|  c #E4D232",
" . c #E8D531",
".. c #ECDC32",
"X. c #CEE228",
"o. c #D3E023",
"O. c #D2E12C",
"+. c #D5E829",
"@. c #CDE136",
"#. c #CCE13A",
"$. c #D4E134",
"%. c #D4E13B",
"&. c #ECE52A",
"*. c #F2E525",
"=. c #F2E32D",
"-. c #F4EB2D",
";. c #F1F124",
":. c #F6F12F",
">. c #F9F32E",
",. c #EEE132",
"<. c #F1E631",
"1. c #F4EC31",
"2. c #F8EF31",
"3. c #F7F230",
"4. c #F9F332",
"5. c #B8A749",
"6. c #8BAE77",
"7. c #87AC7B",
"8. c #8CAD7B",
"9. c #9AB67C",
"0. c #DE8D4C",
"q. c #DD974A",
"w. c #D78F58",
"e. c #E59A49",
"r. c #E48B59",
"t. c #EA8859",
"y. c #E7945A",
"u. c #CDA44D",
"i. c #DCA947",
"p. c #CDB04D",
"a. c #E8A654",
"s. c #D39362",
"d. c #EA8060",
"f. c #C5B867",
"g. c #CBAD71",
"h. c #BED85E",
"j. c #BCD46A",
"k. c #AAC875",
"l. c #B9CB7C",
"z. c #AFD17A",
"x. c #B5D070",
"c. c #BAD771",
"v. c #CAC746",
"b. c #D4C846",
"n. c #CCD242",
"m. c #CADA41",
"M. c #CDDD4C",
"N. c #D0D243",
"B. c #D2C757",
"V. c #CBDB52",
"C. c #C3D35E",
"Z. c #C6DB5E",
"A. c #CADC5B",
"S. c #CEE146",
"D. c #D3E147",
"F. c #CEE151",
"G. c #CBC967",
"H. c #C9DD65",
"J. c #C7D672",
"K. c #753E84",
"L. c #7A548E",
"P. c #577383",
"I. c #6B6B87",
"U. c #990085",
"Y. c #9E008D",
"T. c #9F1588",
"R. c #A30088",
"E. c #B30084",
"W. c #A11187",
"Q. c #AB3E91",
"!. c #C80085",
"~. c #CC008C",
"^. c #D00081",
"/. c #E40087",
"(. c #EC008E",
"). c #EA1D80",
"_. c #F31B8D",
"`. c #8E4A8B",
"'. c #914787",
"]. c #877488",
"[. c #8E6C92",
"{. c #B87298",
"}. c #E54080",
"|. c #F84688",
" X c #DD698A",
".X c #558388",
"XX c #728B8D",
"oX c #619282",
"OX c #738A93",
"+X c #7CA989",
"@X c #869885",
"#X c #868E91",
"$X c #B08E89",
"%X c #8AAA85",
"&X c #83AE8B",
"*X c #9CB289",
"=X c #93AD93",
"-X c #A1BB88",
";X c #91B8A3",
":X c #C39487",
">X c #98C293",
",X c #A8C483",
"<X c #B7C682",
/* pixels */
"T T T T T T T T T T T T T T T T T T T T T T T T T T T T T T T T T T T T T T T T T T T T T T T T T T ",
"T T T T T T T T T T T T T T T T T T T T T T T T T T T T T T T T T T T T T T T T T T T T T T T T T T ",
"T T T T T T T T T T T T T T T T T T T T T T T T T T T T T T T T T T T T T T T T T T T T T T T T T T ",
"T T T T T T T T T T T T T T T T T T T T T T T T T T T T T T T T T T T T T T T T T T T T T T T T T T ",
"T T T T T T T T T T T T T T T T T T T T T T T T T T T T T T T T T T T T T T T T T T T T T T T T T T ",
"T T T T T T T T T T T T T T T T T T T T T T T T T T T T T T T T T T T T T T T T T T T T T T T T T T ",
"T T T T T T T T T T T T T T T T T T T T T T T T T T T T T T T T T T T T T T T T T T T T T T T T T T ",
"T T T T T T T T T T T T T T T T T T T T T T T T T T T T T T T T T T T T T T T T T T T T T T T T T T ",
"T T T T T T T T T T T T T T T T T T T T T T T T T T T T T T T T T T T T T T T T T T T T T T T T T T ",
"T T T T T T T T T T T T T T T T T T T T T T T T T T T T T T T T T T T T T T T T T T T T T T T T T T ",
"T T T T T T T T T T T T T T T T T T T T T T T T T T T T T T T T T T T T T T T T T T T T T T T T T T ",
"T T T T T T T T T T T T T T T T T T T T T T T T T T T T T T T T T T T T T T T T T T T T T T T T T T ",
"T T T T T T T T T T T T T T T T T T T T T T T T T T T T T T T T T T T T T T T T T T T T T T T T T T ",
"T T T T T T T T T T T T T T T T T T T T T T T T T T T T T T T T T T T T T T T T T T T T T T T T T T ",
"T T T T T T T T T T T T T T T T T T T T T T T T T T T T T T T T T T T T T T T T T T T T T T T T T T ",
"T T T T T T T T T T T T T T T T T T T T T T T T T T T T T T T T T T T T T T T T T T T T T T T T T T ",
"T T T T T T T T T T T T T T T T T T T T T T T T T T T T T T T T T T T T T T T T T T T T T T T T T T ",
"T T T T T T T T T T T T T T T T T T T T T T T T T T T T T T T T T T T T T T T T T T T T T T T T T T ",
"T T T T T Y Y Y Y Y T T T T E Y Y T T T T Y Y Y W T T T T Y Y T T T T Y Y Y Y Y Y Y T T T T T T T T ",
"T T T T I | | | | | } P #.T J | | K T #.P K  .} k Y T T H |  .J T T P } | | | | | | { Y T T T T T T ",
"T T T Y } >.:.>.3.4.] d A U E <.4.' E Y { 3.>.~ s b.Z U K 4.-.j G A K 2.>.:.:.:.4.>.^ L A U T T T T ",
"T T T Y | 3.=.~ m m x r g.#.T K 1.-.{ d 1.3.' p 0  Xj.n.| 3.*.h w C.K ( ) ..3.[ ~ m i y G.@.T T T T ",
"T T T G ..4._ e.7 7 t < [.j.N n...>.| ..4.[ u t /.K.;Xb.' 4._ e.~.*X$.u.q.&.3.) 0.e t /.#XV.A T T T ",
"T T T P ,.3.) i.r.y.> * I.A.Z T R <.1.1.=.u r.(.@ .XA.C ..3.n t.E.9.+.v.i.-.2.b e !.= $ @XD.U T T T ",
"T T T P <.1.1.-.;.v 5..X=X%.U T L ..>.1.Q r._.& O J.o.L -.3.m r W.k.o.T K 1.-.Q 9 1 oXXX,Xo.T T T T ",
"T T T K 1.-.=.*.*.c w.f.#.U #.G } 3.<.1.n t = O <XM m.K 1.1.b 6 `.j.N n.K 3.-.f : ].H.D.m.U T T T T ",
"T T Y K 3.-.f e.y.e.q {.h.O.G J 3.-.} 1.3.k X *X$.T Y K 1.-.g : ].Z.Z n.} 4.*.h ^.@XS.Z T T T T T T ",
"T T Y | 3.=.s 9 8 }.; L.c.z L 1.3.( p ..4.V g.V.A T Y | 3.*.h ; #XM.A G  .3._ e.!.%X%.U T T T T T T ",
"T #.G  .3.,.|  .' k + OXV.C <.3.[ a e a.;.1.( n.T T G  .4.B e.- @X%.T P ..4.n t.E.9.$.T T T T T T T ",
"T T P =.>.:.>.>.>.g f.Z.H ..4.=.u r.(.2 ` >.=.b.m.#.P =.4.n t.E.9.O.T H =.3.n r T.k.o.T T T T T T T ",
"T T E ^ ! ! b Q b h 5 f.^ / ! i q._.* P.B.b ! g v.#.E ^ / x d.R.k.o.T R ^ / i 7 `.j.z T T T T T T T ",
"T T T F 4 q 0 0 0 q ~.=XW p.8 y |.- o l.X.s., q y N.X.v.3 q < '.x.z T T v.9 q ).].Z.Z T T T T T T T ",
"T T T A :XY.$ % % * . *XN B.{.U.#   *X$.Z G.Q.$ % $XS.Z :XY.# I.H.Z T U T $XU.@ XXF.A T T T T T T T ",
"T T T S c.&X6.8.8.6.%Xl.l Z.>X7.7.-XM.A T @.,X+X+X=XZ.l c.&X7.-XM.U T T D z.%X7.,XU T T T T T T T T ",
"T T T T U $.%.$.%.%.$.U T U D $.%.O.U T T U D %.%.O.U T U $.%.O.U T T T T D $.%.D T T T T T T T T T ",
"T T T T T T T T T T T T T T T T T T T T T T T T T T T T T T T T T T T T T T T T T T T T T T T T T T ",
"T T T T T T T T T T T T T T T T T T T T T T T T T T T T T T T T T T T T T T T T T T T T T T T T T T ",
"T T T T T T T T T T T T T T T T T T T T T T T T T T T T T T T T T T T T T T T T T T T T T T T T T T ",
"T T T T T T T T T T T T T T T T T T T T T T T T T T T T T T T T T T T T T T T T T T T T T T T T T T ",
"T T T T T T T T T T T T T T T T T T T T T T T T T T T T T T T T T T T T T T T T T T T T T T T T T T ",
"T T T T T T T T T T T T T T T T T T T T T T T T T T T T T T T T T T T T T T T T T T T T T T T T T T ",
"T T T T T T T T T T T T T T T T T T T T T T T T T T T T T T T T T T T T T T T T T T T T T T T T T T ",
"T T T T T T T T T T T T T T T T T T T T T T T T T T T T T T T T T T T T T T T T T T T T T T T T T T ",
"T T T T T T T T T T T T T T T T T T T T T T T T T T T T T T T T T T T T T T T T T T T T T T T T T T ",
"T T T T T T T T T T T T T T T T T T T T T T T T T T T T T T T T T T T T T T T T T T T T T T T T T T ",
"T T T T T T T T T T T T T T T T T T T T T T T T T T T T T T T T T T T T T T T T T T T T T T T T T T ",
"T T T T T T T T T T T T T T T T T T T T T T T T T T T T T T T T T T T T T T T T T T T T T T T T T T ",
"T T T T T T T T T T T T T T T T T T T T T T T T T T T T T T T T T T T T T T T T T T T T T T T T T T ",
"T T T T T T T T T T T T T T T T T T T T T T T T T T T T T T T T T T T T T T T T T T T T T T T T T T ",
"T T T T T T T T T T T T T T T T T T T T T T T T T T T T T T T T T T T T T T T T T T T T T T T T T T "
};
