/* XPM */
static char *b6355c78833f440ea97b40033086cd25[] = {
/* columns rows colors chars-per-pixel */
"50 50 206 2 ",
"   c #5B2970",
".  c #145176",
"X  c #29617D",
"o  c #735F6C",
"O  c #674C76",
"+  c #850465",
"@  c #94006D",
"#  c #8E0075",
"$  c #970077",
"%  c #9C0075",
"&  c #94007C",
"*  c #A4006D",
"=  c #A60072",
"-  c #B8037D",
";  c #833F7E",
":  c #C9057B",
">  c #D9007D",
",  c #D51D7A",
"<  c #CD377A",
"1  c #DC3876",
"2  c #F2367D",
"3  c #A85D62",
"4  c #D9775E",
"5  c #EE6F5D",
"6  c #F3675E",
"7  c #DB526E",
"8  c #E65B6D",
"9  c #ED5F6B",
"0  c #E64E74",
"q  c #EB4974",
"w  c #F24F78",
"e  c #E85774",
"r  c #EF5379",
"t  c #FA537C",
"y  c #F25B79",
"u  c #DD666F",
"i  c #DD7464",
"p  c #ED6A65",
"a  c #E96569",
"s  c #EE656D",
"d  c #ED6D6B",
"f  c #F26464",
"g  c #F36B65",
"h  c #F1656A",
"j  c #F36D6B",
"k  c #E67565",
"l  c #E97565",
"z  c #E67B64",
"x  c #E97B64",
"c  c #EB736B",
"v  c #E87B69",
"b  c #F57469",
"n  c #F4716D",
"m  c #EB6373",
"M  c #E86A7C",
"N  c #ED7474",
"B  c #EC7973",
"V  c #EA757B",
"C  c #E47D7F",
"Z  c #F37372",
"A  c #DEB919",
"S  c #E1BD13",
"D  c #DEAD29",
"F  c #DDB423",
"G  c #DCAA38",
"H  c #DCB93D",
"J  c #E4BB29",
"K  c #E2AA36",
"L  c #E8AB3C",
"P  c #E2BA32",
"I  c #E8B936",
"U  c #E2C601",
"Y  c #ECD300",
"T  c #F1DF00",
"R  c #E5C617",
"E  c #E4C51D",
"W  c #E9C71B",
"Q  c #EBD816",
"!  c #EBD31A",
"~  c #EFE404",
"^  c #EEE11E",
"/  c #DECB2F",
"(  c #DFD02B",
")  c #DDC632",
"_  c #E6C524",
"`  c #E7C925",
"'  c #E9CB26",
"]  c #E5C32C",
"[  c #E7C92A",
"{  c #E9CE2B",
"}  c #EAD124",
"|  c #EDDB22",
" . c #E8D826",
".. c #E4D32D",
"X. c #E7DB2E",
"o. c #EADD2E",
"O. c #F1DC2D",
"+. c #E3C537",
"@. c #E3CD35",
"#. c #E1C43B",
"$. c #E4D231",
"%. c #EBDE33",
"&. c #EEE627",
"*. c #EBE42B",
"=. c #F2E425",
"-. c #F2EC26",
";. c #F2E22C",
":. c #F3EC2C",
">. c #F0F125",
",. c #F6F22E",
"<. c #F9F32E",
"1. c #EEE432",
"2. c #F0E631",
"3. c #F5EC32",
"4. c #F8EF33",
"5. c #F7F231",
"6. c #F9F332",
"7. c #BB9F4E",
"8. c #DE8D4C",
"9. c #DC9B48",
"0. c #D88A5B",
"q. c #DD9D52",
"w. c #E5984A",
"e. c #E58D53",
"r. c #E4835E",
"t. c #EA8659",
"y. c #E38C5C",
"u. c #E29455",
"i. c #E59A57",
"p. c #E9925E",
"a. c #DEA940",
"s. c #DEB444",
"d. c #DEA650",
"f. c #E1A64D",
"g. c #E4AA4C",
"h. c #E2B444",
"j. c #E2BB44",
"k. c #E7A952",
"l. c #E0B650",
"z. c #DB9263",
"x. c #D6817B",
"c. c #E68362",
"v. c #E68666",
"b. c #E4807E",
"n. c #CBA471",
"m. c #E1A765",
"M. c #6D5982",
"N. c #456A82",
"B. c #5D6889",
"V. c #55738E",
"C. c #756789",
"Z. c #697988",
"A. c #797894",
"S. c #930082",
"D. c #AF0F84",
"F. c #972489",
"G. c #9D3487",
"H. c #A02886",
"J. c #C70084",
"K. c #E8008C",
"L. c #F2088E",
"P. c #E61682",
"I. c #F2148C",
"U. c #C9278A",
"Y. c #DF3381",
"T. c #F73685",
"R. c #E43592",
"E. c #8D4D8C",
"W. c #904A87",
"Q. c #895C8D",
"!. c #AA4792",
"~. c #BB5D9D",
"^. c #89688B",
"/. c #946F8C",
"(. c #8D798D",
"). c #9B7C86",
"_. c #9A778E",
"`. c #9D7E8A",
"'. c #946696",
"]. c #A9798B",
"[. c #B07C88",
"{. c #BE609A",
"}. c #C65B95",
"|. c #CF5E93",
" X c #E34182",
".X c #E45D83",
"XX c #DB7C86",
"oX c #E16D87",
"OX c #E47B80",
"+X c #98848C",
"@X c #8F8690",
"#X c #8C8B95",
"$X c #968398",
"%X c #B8828D",
"&X c #A88699",
"*X c #B38595",
"=X c #AB969F",
"-X c #A092AC",
";X c #C68289",
":X c #C88C8F",
">X c #D68286",
",X c #D6878A",
"<X c #D0848C",
"1X c #C48795",
"2X c #D08192",
"3X c #E48186",
/* pixels */
"d d d d d d d d d d d d d d d d d d d d d d d d d d d d d d d d d d d d d d d d d d d d d d d d d d ",
"d d d d d d d d d d d d d d d d d d d d d d d d d d d d d d d d d d d d d d d d d d d d d d d d d d ",
"d d d d d d d d d d d d d d d d d d d d d d d d d d d d d d d d d d d d d d d d d d d d d d d d d d ",
"d d d d d d d d d d d d d d d d d d d d d d d d d d d d d d d d d d d d d d d d d d d d d d d d d d ",
"d d d d d d d d d d d d d d d d d d d d d d d d d d d d d d d d d d d d d d d d d d d d d d d d d d ",
"d d d d d d d d d d d d d d d d d d d d d d d d d d d d d d d d d d d d d d d d d d d d d d d d d d ",
"d d d d d d d d d d d d d d d d d d d d d d d d d d d d d d d d d d d d d d d d d d d d d d d d d d ",
"d d d d d d d d d d d d d d d d d d d d d d d d d d d d d d d d d d d d d d d d d d d d d d d d d d ",
"d d d d d d d d d d d d d d d d d d d d d d d d d d d d d d d d d d d d d d d d d d d d d d d d d d ",
"d d d d d d d d d d d d d d d d d d d d d d d d d d d d d d d d d d d d d d d d d d d d d d d d d d ",
"d d d d d d d d d d d d d d d d d d d d d d d d d d d d d d d d d d d d d d d d d d d d d d d d d d ",
"d d d d d d d d d d d d d d d d d d d d d d d d d d d d d d d d d d d d d d d d d d d d d d d d d d ",
"d d d d d d d d d d d d d d d d d d d d d d d d d d d d d d d d d d d d d d d d d d d d d d d d d d ",
"d d d d d d d d d d d d d d d d d d d d d d d d d d d d d d d d d d d d d d d d d d d d d d d d d d ",
"d d d d d d d d d d d d d d d d d d d d d d d d d d d d d d d d d d d d d d d d d d d d d d d d d d ",
"d d d d d d d d d d d d d d d d d d d d d d d d d d d d d d d d d d d d d d d d d d d d d d d d d d ",
"d d d d d d d d d d d d d d d d d d d d d d d d d d d d d d d d d d d d d d d d d d d d d d d d d d ",
"d d d d d d d d d d d d d d d d d d d d d d d d d d d d d d s d d d d d d d d d d d d d d d d d d d ",
"d d d d x z x x x x x d d c x l l d d d d l z x x d d d x l x c d d c x z x l x l l x d d d d d d d ",
"d d d d s...$.$.$.$.[ y.s c H $.$.g.s d u./ $...P c.d d s.....h.c s i.( $.$.$.$.@...+.x d d d d d d ",
"d d d d @.<.,.<.5.6.Q u.s s p.:.6.| c.z / ,.<.' G k f l #.<.:.J l s h.,.6.,.,.,.6.5.` r.h d d d d d ",
"d d d z $.5.;.' ! ! U k .XB 9 j.:.:.I H :.5.{ D e R.XXv...5.=.K  XV h.! { %.5.O.' ! S e oXc d d d d ",
"d d s y.X.6.| w.8 a c 2 '.>Xf v.o.6...o.6.O.A c K.M.-Xv. .6.| w.U.&Xb 4 9.*.5.} 8.s n P.$XV p d d d ",
"d d s u.*.5.} a.y.p.< = C.C g s k.:.3.3.;.A r.L.+ Z.V e.*.6.Q t.D.[.b 0 q.-.4.W d J.- @ (.Z p d d d ",
"d d s f.:.3.3.:.>.T 7.V.&Xn d d q.*.5.3._ e.I.* N.3Xf d.:.4.! l G.;Xg d j.:.3._ e ; Z.A.1Xg d d d d ",
"d d d j.:.3.;.=.=.Y 0..Xc d h y...3.2.3.Q c - X 2Xg s s.:.3.W 8 W.>Xf c #.,.:.I 1 '.3XZ c d d d d d ",
"d d d #.,.:.J w.u.w.9 {.x.h z ) 5.:.[ 3.5.P O *Xn d d #.,.:.J 1 Q.C f z $.6.=.L : /.N f d d d d d d ",
"d d k $.5.;.G 0 0  X> C.>X5 H :.5.{ D o.6.~ n.M p d k @.5.=.L , ^.B s c.X.5.| w.J.`.n d d d d d d d ",
"d s r.X.5.1.$.$. .P o A.V G 2.6.O.F a k.-.3.{ v d d r.X.6.^ w.: _.n s y.*.6.Q t.D.%Xj d d d d d d d ",
"d s i.&.5.,.<.,.<.J x.OXg.*.6.;.A y.K.3  .5.-.l.d h u.&.6.Q e.- ].b s f.-.5.Q l G.;Xg d d d d d d d ",
"d s p.] ` _ E _ E K Y.x.] [ ` R 9.I.= B.m.W [ E z.s p.] [ U x H.%Xg s i.` [ S 8 E.>Xf d d d d d d d ",
"d d s i 7 w r r e t U.$Xv i q y T.: . 2Xh u q y .Xs h i 7 y T.W.<Xf d d k 0 y P.^.OXf d d d d d d d ",
"d d d s |.F.% $ $ %   *Xg m ~.& @ . *Xj p M !.$ # ].B f |.F.+ B.3Xf d d h }.S.+ A.B p d d d d d d d ",
"d d d g ,X$X].`.`.).$X<X6 b.=X+X).*XN p d c *X#X@X=XC 6 ,X#X).*XN d d d j :X+X).1Xd d d d d d d d d ",
"d d d d d j n j j n j d d d g j n j d d d d h Z Z j d d d j n j d d d d d h j n j d d d d d d d d d ",
"d d d d d d d d d d d d d d d d d d d d d d d d d d d d d d d d d d d d d d d d d d d d d d d d d d ",
"d d d d d d d d d d d d d d d d d d d d d d d d d d d d d d d d d d d d d d d d d d d d d d d d d d ",
"d d d d d d d d d d d d d d d d d d d d d d d d d d d d d d d d d d d d d d d d d d d d d d d d d d ",
"d d d d d d d d d d d d d d d d d d d d d d d d d d d d d d d d d d d d d d d d d d d d d d d d d d ",
"d d d d d d d d d d d d d d d d d d d d d d d d d d d d d d d d d d d d d d d d d d d d d d d d d d ",
"d d d d d d d d d d d d d d d d d d d d d d d d d d d d d d d d d d d d d d d d d d d d d d d d d d ",
"d d d d d d d d d d d d d d d d d d d d d d d d d d d d d d d d d d d d d d d d d d d d d d d d d d ",
"d d d d d d d d d d d d d d d d d d d d d d d d d d d d d d d d d d d d d d d d d d d d d d d d d d ",
"d d d d d d d d d d d d d d d d d d d d d d d d d d d d d d d d d d d d d d d d d d d d d d d d d d ",
"d d d d d d d d d d d d d d d d d d d d d d d d d d d d d d d d d d d d d d d d d d d d d d d d d d ",
"d d d d d d d d d d d d d d d d d d d d d d d d d d d d d d d d d d d d d d d d d d d d d d d d d d ",
"d d d d d d d d d d d d d d d d d d d d d d d d d d d d d d d d d d d d d d d d d d d d d d d d d d ",
"d d d d d d d d d d d d d d d d d d d d d d d d d d d d d d d d d d d d d d d d d d d d d d d d d d ",
"d d d d d d d d d d d d d d d d d d d d d d d d d d d d d d d d d d d d d d d d d d d d d d d d d d ",
"d d d d d d d d d d d d d d d d d d d d d d d d d d d d d d d d d d d d d d d d d d d d d d d d d d "
};
