/* XPM */
static char *f15f4a96c9b14a53eed02bc18244b04dPjqQZhmbJ6rMbF6W[] = {
/* columns rows colors chars-per-pixel */
"50 50 227 2 ",
"   c #000D08",
".  c #26231E",
"X  c #0A1931",
"o  c #201E26",
"O  c #1E2024",
"+  c #282B28",
"@  c #372A29",
"#  c #31332D",
"$  c #2D3333",
"%  c #3D3C35",
"&  c #393738",
"*  c #472B2E",
"=  c #403E36",
"-  c #483E34",
";  c #494437",
":  c #44433B",
">  c #4D4A3C",
",  c #524A36",
"<  c #66503B",
"1  c #1D3747",
"2  c #292642",
"3  c #373D46",
"4  c #3F4853",
"5  c #494B49",
"6  c #554A44",
"7  c #5A5447",
"8  c #494952",
"9  c #514F50",
"0  c #5A5958",
"q  c #645A4C",
"w  c #685B4A",
"e  c #704F50",
"r  c #655A52",
"t  c #5C605E",
"y  c #737047",
"u  c #6A6558",
"i  c #766A5B",
"p  c #5B6064",
"a  c #6B6867",
"s  c #766C66",
"d  c #797365",
"f  c #746C74",
"g  c #767B7A",
"h  c #886645",
"j  c #8A6A5E",
"k  c #85735B",
"l  c #94755B",
"z  c #8B5D6B",
"x  c #876B66",
"c  c #827463",
"v  c #887A66",
"b  c #967966",
"n  c #866C74",
"m  c #877B75",
"M  c #9A747C",
"N  c #A7787E",
"B  c #79814D",
"V  c #B9C734",
"C  c #CCDB01",
"Z  c #CBDB0B",
"A  c #CBDB16",
"S  c #CDDD1C",
"D  c #D2E10F",
"F  c #CDDC23",
"G  c #C4D329",
"H  c #C9D72B",
"J  c #CEDD2C",
"K  c #C5D434",
"L  c #CDDD35",
"P  c #C5D43C",
"I  c #C8D63B",
"U  c #CDDC39",
"Y  c #D0DF36",
"T  c #D0DF39",
"R  c #CFE02E",
"E  c #D2E22E",
"W  c #CFE032",
"Q  c #D1E135",
"!  c #D1E139",
"~  c #8B954A",
"^  c #868856",
"/  c #98965D",
"(  c #A09A58",
")  c #9BA759",
"_  c #A8AE4C",
"`  c #A9B447",
"'  c #B5BE4E",
"]  c #A5A859",
"[  c #AFB956",
"{  c #B9BE5A",
"}  c #98846A",
"|  c #8E936A",
" . c #8B8278",
".. c #958979",
"X. c #A58D68",
"o. c #A18B74",
"O. c #A7947A",
"+. c #B59878",
"@. c #9EA46B",
"#. c #B9BD66",
"$. c #A8A57B",
"%. c #B1AA7B",
"&. c #BFB37A",
"*. c #C4A77E",
"=. c #C0B577",
"-. c #BAC84A",
";. c #BCC856",
":. c #BBC362",
">. c #BBC577",
",. c #C1CD4A",
"<. c #C3D243",
"1. c #CDDC41",
"2. c #C7D44B",
"3. c #C3C85C",
"4. c #C9D557",
"5. c #C5CC67",
"6. c #C9D466",
"7. c #C2C97A",
"8. c #CBD778",
"9. c #7D8385",
"0. c #878988",
"q. c #968B82",
"w. c #8C908F",
"e. c #9A9489",
"r. c #939797",
"t. c #A79885",
"y. c #AC9C8A",
"u. c #B59D83",
"i. c #B18A92",
"p. c #AC9C93",
"a. c #9CA692",
"s. c #A9A78A",
"d. c #B4A384",
"f. c #B7A587",
"g. c #BAA68D",
"h. c #BDA98D",
"j. c #B7B488",
"k. c #A5A798",
"l. c #B6A993",
"z. c #A9B396",
"x. c #B6B796",
"c. c #BC9BA0",
"v. c #9FA3A4",
"b. c #A4AAA3",
"n. c #A8AAA6",
"m. c #ABAEAB",
"M. c #B3AEA4",
"N. c #ADB3A7",
"B. c #B7B6A7",
"V. c #B3B5AD",
"C. c #AEB5B3",
"Z. c #B5B9B6",
"A. c #BABCB3",
"S. c #B4BABB",
"D. c #C3A988",
"F. c #CAAE8A",
"G. c #C7B18B",
"H. c #CDB28C",
"J. c #C4AE95",
"K. c #C4B295",
"L. c #CCB594",
"P. c #C3B49C",
"I. c #C3BA9E",
"U. c #CCBA9C",
"Y. c #D2B793",
"T. c #D4BA95",
"R. c #D3BC9B",
"E. c #C9B6A1",
"W. c #C3B8A4",
"Q. c #CBBDA5",
"!. c #C4BBAB",
"~. c #CBBCAA",
"^. c #D3BEA5",
"/. c #C9BDB2",
"(. c #B8C489",
"). c #B9C498",
"_. c #BAC2A6",
"`. c #BAC0B3",
"'. c #BCC1BD",
"]. c #C4CD86",
"[. c #D3D789",
"{. c #C1CC92",
"}. c #D9C19E",
"|. c #D6D894",
" X c #CAC5A9",
".X c #D5C1A4",
"XX c #DAC2A3",
"oX c #DAC6AA",
"OX c #D7DAAC",
"+X c #C2C5BC",
"@X c #C8C6B9",
"#X c #D7C9B5",
"$X c #DCCFBA",
"%X c #CBD3B7",
"&X c #DDD7B1",
"*X c #DDD2BB",
"=X c #E2D9B9",
"-X c #D7E2AF",
";X c #B6BFC1",
":X c #BCC2C3",
">X c #C6C9C5",
",X c #C4CCC5",
"<X c #CACCC4",
"1X c #C5CDCC",
"2X c #D3CEC6",
"3X c #CBD2CC",
"4X c #DCD5C6",
"5X c #D3D5CD",
"6X c #D8D5CA",
"7X c #C4CCD1",
"8X c #CDD4D2",
"9X c #CDD6D6",
"0X c #D0D6D1",
"qX c #D3DAD4",
"wX c #DBDCD4",
"eX c #D4DBDA",
"rX c #D8DFDF",
"tX c #E4D8C6",
"yX c #E4DBCB",
"uX c #E4DDD3",
"iX c #DFE1D7",
"pX c #DCE1DD",
"aX c #EAE0C6",
"sX c #E7E3D9",
"dX c #D7DFE0",
"fX c #D9E2E4",
"gX c #E4E7E5",
/* pixels */
"U U U U U U U U U U U U U U U A 2.[.OX=X=X&X|.|.[.4.C L U U U U U U U U U U U U U U U U U U U U U U ",
"U U U U U U U U U U U J U L Z [.*X~.~.tXtXsXuXtXuXaX|.1.F U U U U U U U U U U U U U U U U U U U U U ",
"U U U U U U U U U U L 6.&.7.|.W.e. .O.~.#XuXyX$X*X#X#X&X6.S 1.U U U U U U U U U U U U U U U U U U U ",
"U U U U U U U U U L 5.O.j t.!.> 1 3 u l./.sX4X~.W.d.O.~.*X4.Z U U U U U U U U U U U U U U U U U U U ",
"U U U U U U U U L :.b h y o.y.6 p 5 q y.2XgX2XE.y.d 7 > p.&X6.L L U U U U U U U U U U U U U U U U U ",
"U U U U U U U L 3.o.k k b O.d.y...v } !.gXgX6X Xu.q 3 9 , ^.P.=.4.L U U U U U U U U U U U U U U U U ",
"U U U U U U U K d.t.c w k h.K.h.P.g.x.gXpXwXwXuXJ.b i i } G.o.b =.U U U U U U U U U U U U U U U U U ",
"U U U U U U R { p.q.m c O..XQ.g.E.P.wX0Xm.n.A.sX4Xf.f.u.G.F.X.h X.4.J U U U U U U U U U U U U U U U ",
"U U U U U U L $.q.q.q. .h.Q.Q.E.h.@X>Xa 4 p 9 r.6XE.K.J.Y.T.+.h l 3.W U U U U U U U U U U U U U U U ",
"U U U U U W ,...q.e.e.q.u.U. XQ.M.5Xw.  + & O % V.#XF.R.^.XXF.} b #.W U U U U U U U U U U U U U U U ",
"U U U U U Q [ v t.s.s. .} K.x.y.A.8X0.$ $ # # @ b.6X^..XoX}.*.O.x { W U U U U U U U U U U U U U U U ",
"U U U U U Q ` x t.t...i ^ g.d d >X:X9.3 + . + 0 n.3X#XR.XXT.*.+.l ,.Q U U U U U U U U U U U U U U U ",
"U U U U U Y -./ / ] ` V ;.l.7 0 Z.S.9.8 & $ & a b.<X@Xu.R.H.+.b ( 1.U U U U U U U U U U U U U U U U ",
"U U U U U U U U U L ! Q L j.a + w.v.g 0 8 9 0 g m.2XM.u L.+.h e { E T U U U U U U U U U U U U U U U ",
"U U U U U U U U U U U I J ' ..6 :  .a & @ & 7 m k./.m w H.l < c @.) ' U Q L U U U U U U U U U U U U ",
"U U U U U U U U U U U U T K $. .# x e @ * @ * j ..s w +.G.t.r s m 0.a ^ -.U Y U U U U U U U U U U U ",
"U U U U U U U U U U U U U G s.V.5 m i.6 9 6 e N i , h.Y.~.l.k u d ..e.0 8 ^ <.Y U U U U U U U U U U ",
"U U U U U U U U U U U U L I j.3Xv.a c.z a e N c.i ~.=X.X!.y.O.} v d ..i : X w <.Y U U U U U U U U U ",
"U U U U U U U U U U U U J 4.I.3X3Xa q.i.M N c.m !.yX#X$XW.g.f.+... .d u % > 2 B U U U U U U U U U U ",
"U U U U U U U U U U U U F 6.!.3X9X0.o f n M d  .tX*XtXtX#XJ.D.D.u.y.u % % % 5 2 ~ ! U U U U U U U U ",
"U U U U U U U U U U U U A ].<XqXeX>Xg $   # u !.$XtXsXuX$XU.D.F.D.l.d + % = : = 5 -.! U U U U U U U ",
"U U U U U U U U U U U U F %XrXqXeXeX3XV.k.M.@X4X4XsXtX#XoXR.H.T.K.P...% % % : ; 3 y I U U U U U U U ",
"U U U U U U U U U U U L I 2XfXeXeXqXqX5X5XqXwXwXsXyXU.R.XXL.R.}.U.W.e.= % % % % 7 8 ` Q U U U U U U ",
"U U U U U U U U U U U S 8.fXeXeXeX0X3X3X5XqXiXsXyXoXL.XXXXL.XXoX^.P...: % : : > 7 a @.U U U U U U U ",
"U U U U U U U U U U 1.C -XgXeXeX9X3X3X0XqXwXsXuX*XXX.XoXXXL.^.oXoXh.c 6 ; ; ; r r q.j.P L U U U U U ",
"U U U U U U U U U U 1.C -XfX8X9X8X3X3X8XeXsXwX6XyX#X X.XR.U..XoXoXh.w 6 7 6 7 7 d P.I.<.L U U U U U ",
"U U U U U U U U U U U J 4.8X9X8X0X3X,X3XpXwX5XiXwX#X.XU.^.Q..XXXoXK.w 7 q 7 7 u d.U.Q.2.L U U U U U ",
"U U U U U U U U U U U 1.C {.9XfXqX,X5XwXqX0XeXpX6X#XU.U.U.U.XXR.}.K.v c i w 7 ..W. X X5.J U U U U U ",
"U U U U U U U U U U U U L 2.,XfXrX3X0X0X3X8XrXpXwX6X2XQ.K.U.XXR.}.U.O.O.c ; s e.M. XE.5.J U U U U U ",
"U U U U U U U U U U U U I F 5.3XfXeXeXqX8X7X9XrXdXpX6XQ.K.U.R.}.}.}.d.} , . s p.W.L.u.,.L U U U U U ",
"U U U U U U U U U U U U U 1.C 7.eXfXrXeX8X:X1XeXdXrX2XQ.P.U.R.R.Y.K.v , 5 0 a t.K.u.] L U U U U U U ",
"U U U U U U U U U U U U U U U Z  X1X>X8X1XC.'.8X9X3X@XQ.U.U.T.Y.F.} X 3 t u i t.+.X.K T U U U U U U ",
"U U U U U U U U U U U U U U U L K x.m.V.A.C.C.'.>X,X@XQ.L.L.H.F.*.V V ` ~ 6 k } b ' Q U U U U U U U ",
"U U U U U U U U U U U U U U U U J 2.B.n.b.z.x.N.C.S.'.A.K.G.D.D.&.L ! Q V - < y _ L U U U U U U U U ",
"U U U U U U U U U U U U U U U U 1.C {.'.w.] F <.;.:.;.(.W.f.+.D.#.J I U K y f / S U L U U U U U U U ",
"U U U U U U U U U U U U U U U U U J 4.`.m.$.I Q J J D -.l.f.f.h.;.J U U L ^ 9.v.;.J U L U U U U U U ",
"U U U U U U U U U U U U U U U U U U F _.Z.k.<.L I 1.F >.M.d.g.j.K U U U L | r.S.N.K L U U U U U U U ",
"U U U U U U U U U U U U U U U U U U F _.:Xm.;.J U 1.Z ).'.I.B.>.F U U U L | 0.b.b.7.S 1.U U U U U U ",
"U U U U U U U U U U U U U U U U U U J %X1X;X(.F U U H B.>X@X+XP L U U U L ) 0.k.m.:.R U U U U U U U ",
"U U U U U U U U U U U U U U U U 1.C 8.eX3XS.%.F 1.F 4.+X<X3X].Z 1.U U U T G | r.k.V ! U U U U U U U ",
"U U U U U U U U U U U U U U U U L 1.%X3X<XZ.[ J 1.Z ).>X@X@X2.J U U U U U Q P ) -.Y U U U U U U U U ",
"U U U U U U U U U U U U U U U U A 8.A.N.A.b.-.Q U F _.:X1X XA U U U U U U U L J L U U U U U U U U U ",
"U U U U U U U U U U U U U U U U S >.n.A.v.a.G U U I _.>X,X].Z 1.U U U U U U U U U U U U U U U U U U ",
"U U U U U U U U U U U U U U U U L ;.a.k./ <.L 1.J ,.'.1X1X6.A 1.U U U U U U U U U U U U U U U U U U ",
"U U U U U U U U U U U U U U U U U L K K J Y U U C (.7XeX3X6.S 1.U U U U U U U U U U U U U U U U U U ",
"U U U U U U U U U U U U U U U U U U U T U U U J 4.+X9X8X<X5.F 1.U U U U U U U U U U U U U U U U U U ",
"U U U U U U U U U U U U U U U U U U U U U U U F x.S.+X,X+X;.J U U U U U U U U U U U U U U U U U U U ",
"U U U U U U U U U U U U U U U U U U U U U U U G k.V.A.N.V.;.R U U U U U U U U U U U U U U U U U U U ",
"U U U U U U U U U U U U U U U U U U U U U U U J x.S.V.0.s.;.L U U U U U U U U U U U U U U U U U U U ",
"U U U U U U U U U U U U U U U U U U U U U U U Y ;.s.#.-.K L U U U U U U U U U U U U U U U U U U U U "
};
